# xmcd
#
# Track frame offsets:
#	150
#	32246
#	44571
#	55244
#	69091
#	81264
#	91476
#	105470
#	121917
#	139063
#	184203
#	195869
#	208020
#	220250
#	253006
#	268477
#	281863
#	294310
#
# Disc length: 4705 seconds
#
# Revision: 1
# Processed by: cddbd v1.5.2PL0 Copyright (c) Steve Scherf et al.
# Submitted via: audiograbber 1.83.01
#
DISCID=17125f12
DTITLE=Allman Duane - The Legend and the Legacy CD1
DYEAR=1900
DGENRE=Blues
TTITLE0=B.B. King Medley: Sweet Little Angel/It's My Own Fault/How Blue Can You
TTITLE0=Get - The Hour Glass
TTITLE1=Born To Be Wild
TTITLE2=Dirty Old Man
TTITLE3=Down Along The Cove
TTITLE4=Waiting For A Train
TTITLE5=Don't Tell Me Your Troubles
TTITLE6=Matchbox
TTITLE7=Come On In My Kitchen
TTITLE8=Please Be With Me
TTITLE9=Push Push
TTITLE10=Goin' Up The Country
TTITLE11=Happily Married Man
TTITLE12=Shake For Me
TTITLE13=Dreams
TTITLE14=Stand Back
TTITLE15=Midnight Rider
TTITLE16=The Weight
TTITLE17=Loan Me A Dime
EXTD=
EXTT0=
EXTT1=
EXTT2=
EXTT3=
EXTT4=
EXTT5=
EXTT6=
EXTT7=
EXTT8=
EXTT9=
EXTT10=
EXTT11=
EXTT12=
EXTT13=
EXTT14=
EXTT15=
EXTT16=
EXTT17=
PLAYORDER=
